<svg width="97" height="98" viewBox="0 0 97 98" fill="none" xmlns="http://www.w3.org/2000/svg">
<mask id="mask0" mask-type="alpha" maskUnits="userSpaceOnUse" x="0" y="0" width="97" height="97">
<path d="M42.1545 17.5035V23.2212C42.1545 24.878 40.8113 26.2212 39.1545 26.2212H17.134C15.4772 26.2212 14.134 27.5643 14.134 29.2212V79.0073C14.134 80.6642 15.4772 82.0073 17.134 82.0073H65.9013C67.5581 82.0073 68.9013 80.6642 68.9013 79.0073V57.4964C68.9013 55.8395 70.2444 54.4964 71.9013 54.4964H78.8926C80.5494 54.4964 81.8926 55.8395 81.8926 57.4964V91.7439C81.8926 93.4008 80.5494 94.7439 78.8926 94.7439H5.16164C3.50478 94.7439 2.16164 93.4008 2.16164 91.7439V17.5035C2.16164 15.8467 3.50479 14.5035 5.16164 14.5035H39.1545C40.8113 14.5035 42.1545 15.8467 42.1545 17.5035Z" stroke="black" stroke-width="4"/>
<path d="M29.9274 63.214V46.0334C29.9274 44.3766 31.2705 43.0334 32.9274 43.0334H51.1269C52.7837 43.0334 54.1269 44.3766 54.1269 46.0334V63.214C54.1269 64.8708 52.7837 66.214 51.1269 66.214H32.9274C31.2705 66.214 29.9274 64.8708 29.9274 63.214Z" stroke="black" stroke-width="4"/>
<path d="M57.9478 11.7583V5.78589C57.9478 4.12903 59.291 2.78589 60.9478 2.78589H91.1197C92.7766 2.78589 94.1197 4.12903 94.1197 5.78589V35.9577C94.1197 37.6146 92.7766 38.9577 91.1197 38.9577H84.6379C82.981 38.9577 81.6379 37.6146 81.6379 35.9577V17.7583C81.6379 16.1014 80.2947 14.7583 78.6379 14.7583H60.9478C59.291 14.7583 57.9478 13.4152 57.9478 11.7583Z" stroke="black" stroke-width="4"/>
<path d="M69.156 26.9855H52.5985M53.8721 43.0334L69.156 26.9855L53.8721 43.0334ZM69.156 26.9855V43.0334V26.9855Z" stroke="black" stroke-width="4" stroke-linecap="round" stroke-linejoin="round"/>
<path d="M44.9199 48.5H39.1342C37.4773 48.5 36.1342 49.8431 36.1342 51.5V57.2857C36.1342 58.9426 37.4773 60.2857 39.1342 60.2857H44.9199C46.5768 60.2857 47.9199 58.9426 47.9199 57.2857V51.5C47.9199 49.8431 46.5768 48.5 44.9199 48.5Z" fill="#C4C4C4"/>
</mask>
<g mask="url(#mask0)">
<path d="M112 -15.5H-16V112.5H112V-15.5Z" fill="url(#paint0_linear)"/>
</g>
<defs>
<linearGradient id="paint0_linear" x1="48" y1="-45.3298" x2="48" y2="130.052" gradientUnits="userSpaceOnUse">
<stop stop-color="#FFB84D"/>
<stop offset="1" stop-color="#C58525"/>
</linearGradient>
</defs>
</svg>
