<svg width="97" height="106" viewBox="0 0 97 106" fill="none" xmlns="http://www.w3.org/2000/svg">
<mask id="mask0" mask-type="alpha" maskUnits="userSpaceOnUse" x="0" y="0" width="97" height="106">
<path d="M87.7139 56.6567H92.95C94.3307 56.6567 95.45 57.776 95.45 59.1567V62.8472C95.45 64.2279 94.3307 65.3472 92.95 65.3472H87.7139V56.6567Z" stroke="black" stroke-width="3"/>
<path d="M44.8938 14.984C48.2692 14.984 51.0055 12.2476 51.0055 8.87223C51.0055 5.49681 48.2692 2.7605 44.8938 2.7605C41.5184 2.7605 38.7821 5.49681 38.7821 8.87223C38.7821 12.2476 41.5184 14.984 44.8938 14.984Z" stroke="black" stroke-width="4"/>
<path d="M44.8938 103.497C68.2315 103.497 87.1504 84.5783 87.1504 61.2406C87.1504 37.9029 68.2315 18.984 44.8938 18.984C21.5561 18.984 2.63721 37.9029 2.63721 61.2406C2.63721 84.5783 21.5561 103.497 44.8938 103.497Z" stroke="black" stroke-width="4"/>
<path d="M44.8938 94.9083C63.7009 94.9083 78.947 79.6622 78.947 60.8551C78.947 42.048 63.7009 26.8019 44.8938 26.8019C26.0867 26.8019 10.8406 42.048 10.8406 60.8551C10.8406 79.6622 26.0867 94.9083 44.8938 94.9083Z" stroke="black" stroke-width="4"/>
<path d="M44.8938 69.1416C49.3918 69.1416 53.0382 65.4952 53.0382 60.9972C53.0382 56.4991 49.3918 52.8528 44.8938 52.8528C40.3957 52.8528 36.7494 56.4991 36.7494 60.9972C36.7494 65.4952 40.3957 69.1416 44.8938 69.1416Z" stroke="black" stroke-width="4"/>
<path d="M46.9742 28.1969H42.9956V33.0499H46.9742V28.1969Z" fill="black"/>
<path d="M69.6616 39.1458L66.8483 36.3325L63.4167 39.7641L66.23 42.5773L69.6616 39.1458Z" fill="black"/>
<path d="M77.7924 62.9865V59.0079H72.9394V62.9865H77.7924Z" fill="black"/>
<path d="M66.7998 85.4554L69.6131 82.6421L66.1815 79.2105L63.3683 82.0238L66.7998 85.4554Z" fill="black"/>
<path d="M42.9046 93.8533H46.8831V89.0003H42.9046V93.8533Z" fill="black"/>
<path d="M20.1734 83.0793L22.9867 85.8926L26.4183 82.461L23.605 79.6478L20.1734 83.0793Z" fill="black"/>
<path d="M12.3627 59.0079V62.9865H17.2157V59.0079H12.3627Z" fill="black"/>
<path d="M22.9868 36.3325L20.1735 39.1458L23.6051 42.5774L26.4184 39.7641L22.9868 36.3325Z" fill="black"/>
<path d="M46.9742 43.2128H42.9956V53H46.9742V43.2128Z" fill="black"/>
<path d="M63.4167 62.9865V59.0079H53.6295V62.9865H63.4167Z" fill="black"/>
</mask>
<g mask="url(#mask0)">
<path d="M113 -11H-15V117H113V-11Z" fill="url(#paint0_linear)"/>
</g>
<defs>
<linearGradient id="paint0_linear" x1="49" y1="-31.6338" x2="49" y2="117" gradientUnits="userSpaceOnUse">
<stop stop-color="#FFB84D"/>
<stop offset="1" stop-color="#C58525"/>
</linearGradient>
</defs>
</svg>
